<mxfile host="app.diagrams.net" agent="Mozilla/5.0 (Windows NT 10.0; Win64; x64) AppleWebKit/537.36 (KHTML, like Gecko) Chrome/137.0.0.0 Safari/537.36" version="27.1.6">
  <diagram name="Página-1" id="37h_Odi_U1qgRp8Necmo">
    <mxGraphModel grid="1" page="1" gridSize="10" guides="1" tooltips="1" connect="1" arrows="1" fold="1" pageScale="1" pageWidth="827" pageHeight="1169" math="0" shadow="0">
      <root>
        <mxCell id="0" />
        <mxCell id="1" parent="0" />
        <mxCell id="AnhRuPj_aapxPwAfTku_-1" value="CU001 Registro" style="swimlane;childLayout=stackLayout;resizeParent=1;resizeParentMax=0;startSize=20;horizontal=0;horizontalStack=1;" vertex="1" parent="1">
          <mxGeometry x="10" y="30" width="1140" height="640" as="geometry">
            <mxRectangle x="200" y="80" width="40" height="50" as="alternateBounds" />
          </mxGeometry>
        </mxCell>
        <mxCell id="AnhRuPj_aapxPwAfTku_-2" value="" style="edgeStyle=orthogonalEdgeStyle;html=1;verticalAlign=bottom;endArrow=open;endSize=8;strokeColor=#ff0000;rounded=0;entryX=0.5;entryY=0;entryDx=0;entryDy=0;" edge="1" parent="AnhRuPj_aapxPwAfTku_-1" source="bHTyQTLX-0W0c1YrBsb2-1" target="AnhRuPj_aapxPwAfTku_-12">
          <mxGeometry relative="1" as="geometry">
            <mxPoint x="80" y="100" as="targetPoint" />
          </mxGeometry>
        </mxCell>
        <mxCell id="AnhRuPj_aapxPwAfTku_-3" value="" style="edgeStyle=orthogonalEdgeStyle;html=1;verticalAlign=bottom;endArrow=open;endSize=8;strokeColor=#ff0000;rounded=0;entryX=0.5;entryY=0;entryDx=0;entryDy=0;exitX=-0.004;exitY=0.421;exitDx=0;exitDy=0;exitPerimeter=0;" edge="1" parent="AnhRuPj_aapxPwAfTku_-1" source="AnhRuPj_aapxPwAfTku_-12" target="AnhRuPj_aapxPwAfTku_-7">
          <mxGeometry relative="1" as="geometry">
            <mxPoint x="146.0000000000001" y="138.0000000000001" as="targetPoint" />
            <mxPoint x="546.48" y="80" as="sourcePoint" />
            <Array as="points">
              <mxPoint x="596" y="100" />
              <mxPoint x="215" y="100" />
            </Array>
          </mxGeometry>
        </mxCell>
        <mxCell id="AnhRuPj_aapxPwAfTku_-5" value="Usuario" style="swimlane;startSize=20;" vertex="1" parent="AnhRuPj_aapxPwAfTku_-1">
          <mxGeometry x="20" width="310" height="640" as="geometry" />
        </mxCell>
        <mxCell id="AnhRuPj_aapxPwAfTku_-6" value="" style="ellipse;html=1;shape=startState;fillColor=#000000;strokeColor=#ff0000;fillStyle=auto;" vertex="1" parent="AnhRuPj_aapxPwAfTku_-5">
          <mxGeometry x="40" y="40" width="30" height="30" as="geometry" />
        </mxCell>
        <mxCell id="AnhRuPj_aapxPwAfTku_-7" value="Diligenciar el formulario" style="rounded=1;whiteSpace=wrap;html=1;arcSize=40;fontColor=#000000;fillColor=#ffffc0;strokeColor=#ff0000;" vertex="1" parent="AnhRuPj_aapxPwAfTku_-5">
          <mxGeometry x="135" y="130" width="120" height="50" as="geometry" />
        </mxCell>
        <mxCell id="bHTyQTLX-0W0c1YrBsb2-1" value="Pulsar el botón &quot;Registro&quot;" style="rounded=1;whiteSpace=wrap;html=1;arcSize=40;fontColor=#000000;fillColor=#ffffc0;strokeColor=#ff0000;" vertex="1" parent="AnhRuPj_aapxPwAfTku_-5">
          <mxGeometry x="140" y="30" width="120" height="50" as="geometry" />
        </mxCell>
        <mxCell id="bHTyQTLX-0W0c1YrBsb2-2" value="" style="edgeStyle=orthogonalEdgeStyle;html=1;verticalAlign=bottom;endArrow=open;endSize=8;strokeColor=#ff0000;rounded=0;entryX=0.028;entryY=0.44;entryDx=0;entryDy=0;entryPerimeter=0;" edge="1" parent="AnhRuPj_aapxPwAfTku_-5" source="AnhRuPj_aapxPwAfTku_-6" target="bHTyQTLX-0W0c1YrBsb2-1">
          <mxGeometry relative="1" as="geometry">
            <mxPoint x="626" y="95" as="targetPoint" />
            <mxPoint x="90" y="75" as="sourcePoint" />
            <Array as="points">
              <mxPoint x="90" y="52" />
              <mxPoint x="90" y="52" />
            </Array>
          </mxGeometry>
        </mxCell>
        <mxCell id="XX4Nu7JA4qbHqbTVliA5-2" style="edgeStyle=orthogonalEdgeStyle;rounded=0;orthogonalLoop=1;jettySize=auto;html=1;entryX=0;entryY=0.5;entryDx=0;entryDy=0;fillColor=#a20025;strokeColor=light-dark(#ff0000, #ffc5c5);" edge="1" parent="AnhRuPj_aapxPwAfTku_-1" source="AnhRuPj_aapxPwAfTku_-7" target="AnhRuPj_aapxPwAfTku_-14">
          <mxGeometry relative="1" as="geometry" />
        </mxCell>
        <mxCell id="AnhRuPj_aapxPwAfTku_-10" value="" style="edgeStyle=orthogonalEdgeStyle;html=1;verticalAlign=bottom;endArrow=open;endSize=8;strokeColor=#ff0000;rounded=0;entryX=-0.001;entryY=0.606;entryDx=0;entryDy=0;entryPerimeter=0;exitX=0;exitY=0.5;exitDx=0;exitDy=0;" edge="1" parent="AnhRuPj_aapxPwAfTku_-1" source="AnhRuPj_aapxPwAfTku_-20" target="AnhRuPj_aapxPwAfTku_-7">
          <mxGeometry relative="1" as="geometry">
            <mxPoint x="133.00000000000006" y="155" as="targetPoint" />
            <Array as="points">
              <mxPoint x="74" y="610" />
              <mxPoint x="74" y="160" />
            </Array>
            <mxPoint x="404.0000000000001" y="610.017543859649" as="sourcePoint" />
          </mxGeometry>
        </mxCell>
        <mxCell id="AnhRuPj_aapxPwAfTku_-11" value="Sistema" style="swimlane;startSize=20;" vertex="1" parent="AnhRuPj_aapxPwAfTku_-1">
          <mxGeometry x="330" width="810" height="640" as="geometry" />
        </mxCell>
        <mxCell id="AnhRuPj_aapxPwAfTku_-12" value="Mostrar formulario de registro" style="rounded=1;whiteSpace=wrap;html=1;arcSize=40;fontColor=#000000;fillColor=#ffffc0;strokeColor=#ff0000;" vertex="1" parent="AnhRuPj_aapxPwAfTku_-11">
          <mxGeometry x="266" y="80" width="120" height="50" as="geometry" />
        </mxCell>
        <mxCell id="XX4Nu7JA4qbHqbTVliA5-22" style="edgeStyle=orthogonalEdgeStyle;rounded=0;orthogonalLoop=1;jettySize=auto;html=1;entryX=0.5;entryY=0;entryDx=0;entryDy=0;fillColor=#a20025;strokeColor=light-dark(#ff0000, #ffc5c5);" edge="1" parent="AnhRuPj_aapxPwAfTku_-11" source="XX4Nu7JA4qbHqbTVliA5-24" target="XX4Nu7JA4qbHqbTVliA5-14">
          <mxGeometry relative="1" as="geometry" />
        </mxCell>
        <mxCell id="AnhRuPj_aapxPwAfTku_-13" value="¿Datos válidos?" style="rhombus;whiteSpace=wrap;html=1;fontColor=#000000;fillColor=#ffffc0;strokeColor=#ff0000;" vertex="1" parent="AnhRuPj_aapxPwAfTku_-11">
          <mxGeometry x="386" y="275" width="116" height="60" as="geometry" />
        </mxCell>
        <mxCell id="AnhRuPj_aapxPwAfTku_-14" value="Validar datos" style="rounded=1;whiteSpace=wrap;html=1;arcSize=40;fontColor=#000000;fillColor=#ffffc0;strokeColor=#ff0000;" vertex="1" parent="AnhRuPj_aapxPwAfTku_-11">
          <mxGeometry x="266" y="135" width="120" height="40" as="geometry" />
        </mxCell>
        <mxCell id="AnhRuPj_aapxPwAfTku_-18" value="" style="edgeStyle=orthogonalEdgeStyle;html=1;align=left;verticalAlign=top;endArrow=open;endSize=8;strokeColor=#ff0000;rounded=0;exitX=0.5;exitY=1;exitDx=0;exitDy=0;entryX=0.5;entryY=0;entryDx=0;entryDy=0;" edge="1" parent="AnhRuPj_aapxPwAfTku_-11" source="AnhRuPj_aapxPwAfTku_-13" target="AnhRuPj_aapxPwAfTku_-20">
          <mxGeometry x="-1" relative="1" as="geometry">
            <mxPoint x="236" y="410" as="targetPoint" />
            <mxPoint x="307" y="370" as="sourcePoint" />
            <Array as="points" />
            <mxPoint as="offset" />
          </mxGeometry>
        </mxCell>
        <mxCell id="XX4Nu7JA4qbHqbTVliA5-16" value="no" style="edgeLabel;html=1;align=center;verticalAlign=middle;resizable=0;points=[];" vertex="1" connectable="0" parent="AnhRuPj_aapxPwAfTku_-18">
          <mxGeometry x="-0.8992" y="-3" relative="1" as="geometry">
            <mxPoint y="1" as="offset" />
          </mxGeometry>
        </mxCell>
        <mxCell id="AnhRuPj_aapxPwAfTku_-20" value="Mostrar mensaje de error" style="rounded=1;whiteSpace=wrap;html=1;arcSize=40;fontColor=#000000;fillColor=#ffffc0;strokeColor=#ff0000;" vertex="1" parent="AnhRuPj_aapxPwAfTku_-11">
          <mxGeometry x="116" y="590" width="120" height="40" as="geometry" />
        </mxCell>
        <mxCell id="XX4Nu7JA4qbHqbTVliA5-20" style="edgeStyle=orthogonalEdgeStyle;rounded=0;orthogonalLoop=1;jettySize=auto;html=1;entryX=0;entryY=0.5;entryDx=0;entryDy=0;fillColor=#a20025;strokeColor=light-dark(#ff0000, #ffc5c5);" edge="1" parent="AnhRuPj_aapxPwAfTku_-11" source="AnhRuPj_aapxPwAfTku_-24" target="XX4Nu7JA4qbHqbTVliA5-24">
          <mxGeometry relative="1" as="geometry">
            <Array as="points">
              <mxPoint x="320" y="315" />
              <mxPoint x="320" y="385" />
            </Array>
          </mxGeometry>
        </mxCell>
        <mxCell id="XX4Nu7JA4qbHqbTVliA5-21" value="no" style="edgeLabel;html=1;align=center;verticalAlign=middle;resizable=0;points=[];" vertex="1" connectable="0" parent="XX4Nu7JA4qbHqbTVliA5-20">
          <mxGeometry x="-0.7692" y="-4" relative="1" as="geometry">
            <mxPoint as="offset" />
          </mxGeometry>
        </mxCell>
        <mxCell id="AnhRuPj_aapxPwAfTku_-24" value="¿Usuario ya existe?" style="rhombus;whiteSpace=wrap;html=1;fillColor=#FAF0B2;strokeColor=light-dark(#ff0000, #ffaaaa);" vertex="1" parent="AnhRuPj_aapxPwAfTku_-11">
          <mxGeometry x="101" y="275" width="150" height="80" as="geometry" />
        </mxCell>
        <mxCell id="AnhRuPj_aapxPwAfTku_-26" value="si" style="edgeStyle=orthogonalEdgeStyle;html=1;align=left;verticalAlign=top;endArrow=open;endSize=8;strokeColor=#ff0000;rounded=0;exitX=0.5;exitY=1;exitDx=0;exitDy=0;entryX=0.5;entryY=0;entryDx=0;entryDy=0;" edge="1" parent="AnhRuPj_aapxPwAfTku_-11" source="AnhRuPj_aapxPwAfTku_-24" target="AnhRuPj_aapxPwAfTku_-20">
          <mxGeometry x="-1" relative="1" as="geometry">
            <mxPoint x="150" y="525" as="targetPoint" />
            <mxPoint x="416" y="395" as="sourcePoint" />
            <Array as="points" />
            <mxPoint as="offset" />
          </mxGeometry>
        </mxCell>
        <mxCell id="XX4Nu7JA4qbHqbTVliA5-8" style="edgeStyle=orthogonalEdgeStyle;rounded=0;orthogonalLoop=1;jettySize=auto;html=1;exitX=0.25;exitY=0.5;exitDx=0;exitDy=0;exitPerimeter=0;entryX=0.5;entryY=0;entryDx=0;entryDy=0;fillColor=#a20025;strokeColor=light-dark(#ff0000, #ffc5c5);" edge="1" parent="AnhRuPj_aapxPwAfTku_-11" source="AnhRuPj_aapxPwAfTku_-22" target="AnhRuPj_aapxPwAfTku_-24">
          <mxGeometry relative="1" as="geometry">
            <mxPoint x="330" y="235" as="sourcePoint" />
            <Array as="points">
              <mxPoint x="183" y="226" />
              <mxPoint x="176" y="226" />
            </Array>
          </mxGeometry>
        </mxCell>
        <mxCell id="bHTyQTLX-0W0c1YrBsb2-3" style="edgeStyle=orthogonalEdgeStyle;rounded=0;orthogonalLoop=1;jettySize=auto;html=1;exitX=0.75;exitY=0.5;exitDx=0;exitDy=0;exitPerimeter=0;entryX=0.5;entryY=0;entryDx=0;entryDy=0;strokeColor=light-dark(#ff0000, #ededed);" edge="1" parent="AnhRuPj_aapxPwAfTku_-11" source="AnhRuPj_aapxPwAfTku_-22" target="AnhRuPj_aapxPwAfTku_-13">
          <mxGeometry relative="1" as="geometry">
            <Array as="points">
              <mxPoint x="400" y="230" />
              <mxPoint x="444" y="230" />
            </Array>
          </mxGeometry>
        </mxCell>
        <mxCell id="AnhRuPj_aapxPwAfTku_-22" value="" style="shape=line;html=1;strokeWidth=6;strokeColor=#ff0000;" vertex="1" parent="AnhRuPj_aapxPwAfTku_-11">
          <mxGeometry x="160" y="220" width="320" height="15" as="geometry" />
        </mxCell>
        <mxCell id="XX4Nu7JA4qbHqbTVliA5-7" style="edgeStyle=orthogonalEdgeStyle;rounded=0;orthogonalLoop=1;jettySize=auto;html=1;entryX=0.497;entryY=0.337;entryDx=0;entryDy=0;entryPerimeter=0;fillColor=#a20025;strokeColor=light-dark(#ff0000, #ffc5c5);" edge="1" parent="AnhRuPj_aapxPwAfTku_-11" source="AnhRuPj_aapxPwAfTku_-14" target="AnhRuPj_aapxPwAfTku_-22">
          <mxGeometry relative="1" as="geometry">
            <Array as="points">
              <mxPoint x="319" y="190" />
              <mxPoint x="319" y="190" />
            </Array>
          </mxGeometry>
        </mxCell>
        <mxCell id="XX4Nu7JA4qbHqbTVliA5-14" value="Mostrar mensaje de éxito" style="rounded=1;whiteSpace=wrap;html=1;arcSize=40;fontColor=#000000;fillColor=#ffffc0;strokeColor=#ff0000;" vertex="1" parent="AnhRuPj_aapxPwAfTku_-11">
          <mxGeometry x="665" y="445" width="120" height="40" as="geometry" />
        </mxCell>
        <mxCell id="XX4Nu7JA4qbHqbTVliA5-10" value="" style="ellipse;html=1;shape=endState;fillColor=#000000;strokeColor=#ff0000;" vertex="1" parent="AnhRuPj_aapxPwAfTku_-11">
          <mxGeometry x="710" y="575" width="30" height="30" as="geometry" />
        </mxCell>
        <mxCell id="XX4Nu7JA4qbHqbTVliA5-11" value="" style="edgeStyle=orthogonalEdgeStyle;html=1;align=left;verticalAlign=top;endArrow=open;endSize=8;strokeColor=#ff0000;rounded=0;exitX=0.5;exitY=1;exitDx=0;exitDy=0;" edge="1" parent="AnhRuPj_aapxPwAfTku_-11" source="XX4Nu7JA4qbHqbTVliA5-14" target="XX4Nu7JA4qbHqbTVliA5-28">
          <mxGeometry x="-1" relative="1" as="geometry">
            <mxPoint x="760" y="515" as="targetPoint" />
            <mxPoint x="1379" y="442" as="sourcePoint" />
            <Array as="points" />
            <mxPoint as="offset" />
          </mxGeometry>
        </mxCell>
        <mxCell id="XX4Nu7JA4qbHqbTVliA5-26" value="" style="edgeStyle=orthogonalEdgeStyle;rounded=0;orthogonalLoop=1;jettySize=auto;html=1;entryX=0.5;entryY=0;entryDx=0;entryDy=0;fillColor=#a20025;strokeColor=light-dark(#ff0000, #ffc5c5);" edge="1" parent="AnhRuPj_aapxPwAfTku_-11" source="AnhRuPj_aapxPwAfTku_-13" target="XX4Nu7JA4qbHqbTVliA5-24">
          <mxGeometry relative="1" as="geometry">
            <mxPoint x="862" y="570" as="sourcePoint" />
            <mxPoint x="1085" y="720" as="targetPoint" />
          </mxGeometry>
        </mxCell>
        <mxCell id="XX4Nu7JA4qbHqbTVliA5-27" value="si" style="edgeLabel;html=1;align=center;verticalAlign=middle;resizable=0;points=[];" vertex="1" connectable="0" parent="XX4Nu7JA4qbHqbTVliA5-26">
          <mxGeometry x="-0.6519" y="1" relative="1" as="geometry">
            <mxPoint as="offset" />
          </mxGeometry>
        </mxCell>
        <mxCell id="XX4Nu7JA4qbHqbTVliA5-24" value="Crear cuenta de usuario" style="rounded=1;whiteSpace=wrap;html=1;arcSize=40;fontColor=#000000;fillColor=#ffffc0;strokeColor=#ff0000;" vertex="1" parent="AnhRuPj_aapxPwAfTku_-11">
          <mxGeometry x="665" y="365" width="120" height="40" as="geometry" />
        </mxCell>
        <mxCell id="XX4Nu7JA4qbHqbTVliA5-29" style="edgeStyle=orthogonalEdgeStyle;rounded=0;orthogonalLoop=1;jettySize=auto;html=1;exitX=0.5;exitY=1;exitDx=0;exitDy=0;entryX=0.5;entryY=0;entryDx=0;entryDy=0;fillColor=#a20025;strokeColor=light-dark(#ff0000, #ffc5c5);" edge="1" parent="AnhRuPj_aapxPwAfTku_-11" source="XX4Nu7JA4qbHqbTVliA5-28" target="XX4Nu7JA4qbHqbTVliA5-10">
          <mxGeometry relative="1" as="geometry" />
        </mxCell>
        <mxCell id="XX4Nu7JA4qbHqbTVliA5-28" value="Redirige a inicio de sesión" style="rounded=1;whiteSpace=wrap;html=1;arcSize=40;fontColor=#000000;fillColor=#ffffc0;strokeColor=#ff0000;" vertex="1" parent="AnhRuPj_aapxPwAfTku_-11">
          <mxGeometry x="665" y="515" width="120" height="40" as="geometry" />
        </mxCell>
      </root>
    </mxGraphModel>
  </diagram>
</mxfile>
